<?xml version="1.0" encoding="utf-8"?>
<!-- Generator: Adobe Illustrator 24.1.2, SVG Export Plug-In . SVG Version: 6.00 Build 0)  -->
<svg version="1.1" id="Capa_1" xmlns="http://www.w3.org/2000/svg" xmlns:xlink="http://www.w3.org/1999/xlink" x="0px" y="0px"
	 viewBox="0 0 547.7 547.7" style="enable-background:new 0 0 547.7 547.7;" xml:space="preserve">
<g>
	<g>
		<path d="M273.9,345.1c39.3,0,71.3-32,71.3-71.3s-32-71.3-71.3-71.3s-71.3,32-71.3,71.3S234.6,345.1,273.9,345.1z M273.9,228.7
			c24.9,0,45.1,20.2,45.1,45.1S298.8,319,273.9,319s-45.1-20.2-45.1-45.1S248.9,228.7,273.9,228.7z"/>
		<path d="M273.9,547.7c151.3,0,273.9-122.6,273.9-273.9S425.1,0,273.9,0S0,122.6,0,273.9S122.6,547.7,273.9,547.7z M273.9,187.3
			c47.7,0,86.6,38.8,86.6,86.6c0,47.7-38.8,86.6-86.6,86.6s-86.6-38.8-86.6-86.6C187.3,226.1,226.1,187.3,273.9,187.3z"/>
	</g>
</g>
</svg>
